<?xml version="1.0" standalone="no"?>
<!DOCTYPE svg PUBLIC "-//W3C//DTD SVG 20010904//EN"
 "http://www.w3.org/TR/2001/REC-SVG-20010904/DTD/svg10.dtd">
<svg version="1.0" xmlns="http://www.w3.org/2000/svg"
 width="414.000000pt" height="414.000000pt" viewBox="0 0 414.000000 414.000000"
 preserveAspectRatio="xMidYMid meet">
<metadata>
Created by potrace 1.11, written by Peter Selinger 2001-2013
</metadata>
<g transform="translate(0.000000,414.000000) scale(0.100000,-0.100000)"
fill="#000000" stroke="none">
<path d="M1927 4024 c-3 -3 -28 -7 -56 -9 -27 -2 -60 -9 -72 -15 -16 -9 -20
-9 -14 0 6 9 3 9 -13 1 -11 -6 -33 -13 -49 -15 -15 -2 -41 -8 -56 -15 -16 -6
-35 -11 -43 -11 -8 0 -14 -4 -14 -8 0 -4 -9 -8 -20 -9 -43 -4 -295 -137 -337
-179 -8 -8 -18 -14 -22 -14 -4 0 -24 -16 -44 -35 -20 -19 -39 -35 -42 -35 -7
0 -105 -104 -105 -112 0 -5 -7 -8 -15 -8 -8 0 -15 -7 -15 -15 0 -7 -6 -18 -13
-22 -13 -8 -21 -19 -91 -123 -72 -108 -160 -313 -181 -424 -2 -11 -4 -21 -5
-21 -3 0 -11 -49 -13 -80 -2 -17 -5 -35 -9 -40 -7 -13 -3 -296 5 -350 4 -22 8
-53 11 -70 2 -16 10 -43 16 -60 6 -16 11 -31 10 -33 -3 -5 12 -66 20 -82 4 -8
23 -51 41 -95 18 -44 46 -102 61 -128 15 -26 28 -52 28 -57 0 -6 5 -10 12 -10
6 0 9 -3 5 -6 -3 -3 11 -39 33 -79 21 -41 35 -76 32 -79 -3 -3 -1 -6 4 -6 6 0
16 -16 23 -35 7 -19 18 -35 24 -35 7 0 6 -4 -3 -10 -8 -5 -10 -10 -4 -10 6 0
31 -39 55 -87 23 -49 49 -94 56 -101 7 -8 11 -18 8 -23 -4 -5 -2 -9 3 -9 5 0
17 -16 26 -35 9 -19 22 -40 29 -47 7 -7 18 -24 25 -38 25 -50 65 -115 76 -122
6 -4 7 -8 2 -8 -5 0 -1 -9 9 -20 10 -11 14 -20 9 -20 -5 0 -4 -4 2 -8 9 -6 38
-48 99 -143 51 -80 90 -135 97 -137 4 -2 6 -8 2 -13 -3 -5 0 -9 5 -9 6 0 11
-7 11 -15 0 -9 7 -18 16 -22 8 -3 13 -11 11 -18 -3 -6 4 -17 14 -23 10 -7 19
-19 19 -27 0 -8 3 -15 8 -15 4 0 18 -18 32 -40 13 -22 28 -40 32 -40 4 0 8 -5
8 -10 0 -6 14 -24 30 -40 17 -16 30 -34 30 -39 0 -6 8 -15 18 -20 9 -6 13 -11
9 -11 -4 0 5 -12 20 -28 15 -15 47 -53 71 -84 23 -31 56 -70 72 -87 17 -17 28
-31 25 -31 -3 0 4 -11 17 -23 13 -13 43 -47 67 -76 l44 -51 16 23 c9 13 23 31
31 39 8 8 33 37 55 63 22 27 50 59 62 72 12 13 19 23 16 23 -4 0 2 8 13 19 10
10 33 36 49 57 17 21 38 46 48 56 9 10 17 20 17 23 0 3 8 13 18 23 9 10 28 33
42 52 14 18 33 43 42 54 57 69 69 86 61 86 -4 0 0 5 10 11 9 6 15 14 12 19 -3
4 2 10 10 14 8 3 15 12 15 19 0 8 9 22 20 32 11 10 20 22 20 26 0 11 61 102
74 111 7 5 7 8 1 8 -5 0 -2 5 8 11 9 6 15 14 12 20 -4 5 -2 9 4 9 6 0 18 16
27 35 9 19 20 35 24 35 4 0 11 11 14 25 4 14 11 25 16 25 6 0 10 6 10 13 0 7
9 23 20 35 12 12 18 22 15 22 -3 0 8 20 24 44 17 24 27 46 24 50 -4 3 -1 6 5
6 7 0 12 7 12 15 0 8 5 15 10 15 6 0 10 7 10 15 0 8 5 15 10 15 6 0 9 3 9 8
-3 19 2 33 11 27 6 -3 10 3 10 14 0 12 5 21 10 21 6 0 10 7 10 15 0 8 4 15 8
15 4 0 14 16 21 35 7 19 17 35 22 35 5 0 8 3 7 8 -3 12 36 92 45 92 4 0 5 5 2
10 -3 6 -1 10 6 10 7 0 9 3 6 7 -4 3 -2 12 4 20 6 7 8 13 3 13 -5 0 -4 4 2 8
7 4 36 57 65 117 29 61 67 135 84 165 26 47 46 91 106 235 18 42 46 171 57
255 8 67 7 311 -1 360 -4 19 -8 47 -9 63 -1 15 -6 27 -10 27 -4 0 -7 3 -6 8 2
5 -7 60 -16 102 -1 5 -16 45 -36 95 -20 51 -95 200 -102 203 -4 2 -8 8 -8 12
0 10 -27 52 -75 115 -30 39 -39 50 -101 117 -56 59 -132 126 -138 120 -3 -3
-6 -1 -6 5 0 14 -148 111 -235 154 -38 19 -73 38 -76 42 -3 5 -9 8 -13 7 -6
-2 -54 11 -71 20 -3 1 -8 3 -12 5 -5 1 -15 4 -23 7 -47 17 -105 32 -126 32
-13 0 -24 4 -24 9 0 4 -8 7 -17 6 -10 -1 -20 0 -23 1 -29 11 -373 24 -383 14z"/>
</g>
</svg>
